<svg width="65" height="87" viewBox="0 0 65 87" fill="none" xmlns="http://www.w3.org/2000/svg">
<path d="M60.3705 84.6204C60.3705 85.6289 61.1465 86.4996 62.1681 86.5001C63.1906 86.5001 63.9672 85.6294 63.9672 84.6204V73.3726C63.9672 61.8722 55.155 52.4639 44.259 52.4639H20.1577C9.28926 52.4639 0.5 61.8737 0.5 73.3726L0.500616 84.6198C0.500616 85.6286 1.27707 86.4994 2.2991 86.4994C3.32112 86.4994 4.09758 85.6286 4.09758 84.6198V73.3719C4.09758 63.8856 11.3326 56.2227 20.1581 56.2227L44.2594 56.2233C53.1141 56.2233 60.3705 63.8877 60.3705 73.3726V84.6204Z" fill="#0C4DA2" stroke="#0C4DA2"/>
<path d="M31.0566 56.192C21.4436 55.5472 13.8535 47.0411 13.8535 36.7367C13.8535 34.6966 14.1507 32.6821 14.74 30.7506L31.0566 56.192ZM31.0566 56.192L31.0163 56.232H32.2301C42.3926 56.232 50.6083 47.4575 50.6089 36.7375C50.6089 34.7886 50.3376 32.8628 49.8033 31.0147L49.803 31.0138C49.5203 30.0429 48.5258 29.4404 47.5435 29.7656C46.5806 30.0805 46.0806 31.1384 46.3596 32.1033L46.3597 32.1037C46.7929 33.5968 47.012 35.1553 47.012 36.7368C47.012 45.442 40.3531 52.4722 32.2315 52.4722C24.1099 52.4722 17.4511 45.4422 17.4511 36.7368C17.4511 35.0832 17.6922 33.4523 18.1673 31.8921L18.1674 31.8918C18.4596 30.93 17.9734 29.865 17.0159 29.5354L17.0159 29.5354L17.014 29.5348C16.0463 29.206 15.0366 29.7776 14.7401 30.7504L31.0566 56.192Z" fill="#0C4DA2" stroke="#0C4DA2"/>
<path d="M17.0711 33.5174C22.0373 34.9739 27.1548 35.7118 32.2931 35.7118L32.2931 35.712C32.471 35.712 32.6487 35.7107 32.8241 35.7094L32.8253 35.7094L32.8272 35.7093C37.743 35.6545 42.6428 34.9173 47.385 33.5191C49.4418 32.9221 50.8419 30.9244 50.8419 28.6941V16.7402C50.8419 16.1342 50.5613 15.5558 50.0756 15.2L50.0756 15.2L50.0734 15.1984C49.5838 14.8437 48.9592 14.758 48.3917 14.9873L48.3909 14.9876L32.2278 21.5496L16.0948 15.0181L16.094 15.0177C15.5318 14.7913 14.9007 14.8739 14.4118 15.232L14.4118 15.232L14.4113 15.2323C13.9266 15.5883 13.6455 16.1649 13.6455 16.7715V28.6939C13.6455 30.9184 14.9942 32.866 17.0621 33.5147L17.0621 33.5148L17.0711 33.5174ZM17.2425 28.6941V19.5155L31.5793 25.3198L31.5812 25.3205C31.9991 25.4877 32.4612 25.4891 32.8814 25.3192L32.882 25.3189L47.2447 19.4875V28.6941C47.2447 29.298 46.8927 29.7599 46.4157 29.8986L46.4138 29.8991C41.972 31.2088 37.3874 31.8989 32.79 31.9494L32.7895 31.9494C27.8121 32.0091 22.8591 31.3093 18.0703 29.9063C17.5809 29.7502 17.2425 29.294 17.2425 28.6941Z" fill="#0C4DA2" stroke="#0C4DA2"/>
<path d="M31.5809 25.3181C31.6303 25.3381 31.6803 25.3557 31.7308 25.3709L58.6664 14.8633C59.3688 14.5792 59.8123 13.879 59.8156 13.12C59.8189 12.3633 59.3836 11.6578 58.6859 11.3654L33.0749 0.635721C33.0746 0.635602 33.0743 0.635483 33.074 0.635365C32.6459 0.455158 32.1686 0.455532 31.7419 0.632578C31.7418 0.632618 31.7417 0.632658 31.7416 0.632698L5.7835 11.3625C5.78346 11.3625 5.78341 11.3625 5.78336 11.3626C5.08191 11.6523 4.64485 12.357 4.64649 13.1157C4.64813 13.8753 5.09172 14.5766 5.79235 14.8623L5.79327 14.8627L31.5803 25.3179L31.5809 25.3181ZM32.883 25.3172L58.6658 14.8636L32.883 25.3172ZM53.1061 13.0808L32.2291 21.5485L11.3716 13.095L32.3998 4.40313L53.1061 13.0808Z" fill="#0C4DA2" stroke="#0C4DA2"/>
<path d="M56.2168 24.3242C56.2168 25.333 56.9933 26.2038 58.0153 26.2038C59.0373 26.2038 59.8138 25.333 59.8138 24.3242V13.1117C59.8138 12.1029 59.0373 11.2321 58.0153 11.2321C56.9933 11.2321 56.2168 12.1029 56.2168 13.1117V24.3242Z" fill="#0C4DA2" stroke="#0C4DA2"/>
</svg>
